<svg viewBox="0 0 16 10" xmlns="http://www.w3.org/2000/svg">
<path d="M12.5 1V9C12.5 9.26522 12.3946 9.51957 12.2071 9.70711C12.0196 9.89464 11.7652 10 11.5 10H10.5C10.2348 10 9.98043 9.89464 9.79289 9.70711C9.60536 9.51957 9.5 9.26522 9.5 9V5.5H6.5V9C6.5 9.26522 6.39464 9.51957 6.20711 9.70711C6.01957 9.89464 5.76522 10 5.5 10H4.5C4.23478 10 3.98043 9.89464 3.79289 9.70711C3.60536 9.51957 3.5 9.26522 3.5 9V1C3.5 0.734784 3.60536 0.48043 3.79289 0.292893C3.98043 0.105357 4.23478 0 4.5 0H5.5C5.76522 0 6.01957 0.105357 6.20711 0.292893C6.39464 0.48043 6.5 0.734784 6.5 1V4.5H9.5V1C9.5 0.734784 9.60536 0.48043 9.79289 0.292893C9.98043 0.105357 10.2348 0 10.5 0H11.5C11.7652 0 12.0196 0.105357 12.2071 0.292893C12.3946 0.48043 12.5 0.734784 12.5 1ZM2.25 1.5H2C1.73478 1.5 1.48043 1.60536 1.29289 1.79289C1.10536 1.98043 1 2.23478 1 2.5V4.5H0.516875C0.387666 4.49809 0.262528 4.54518 0.166633 4.6318C0.0707386 4.71842 0.011202 4.83814 -4.16767e-08 4.96688C-0.00454124 5.03527 0.00502836 5.10387 0.0281144 5.1684C0.0512004 5.23294 0.0873097 5.29205 0.134199 5.34204C0.181089 5.39204 0.237758 5.43186 0.300686 5.45903C0.363613 5.48621 0.431456 5.50015 0.5 5.5H1V7.5C1 7.76522 1.10536 8.01957 1.29289 8.20711C1.48043 8.39464 1.73478 8.5 2 8.5H2.25C2.3163 8.5 2.37989 8.47366 2.42678 8.42678C2.47366 8.37989 2.5 8.3163 2.5 8.25V1.75C2.5 1.6837 2.47366 1.62011 2.42678 1.57322C2.37989 1.52634 2.3163 1.5 2.25 1.5ZM16 4.96688C15.9888 4.83836 15.9295 4.71882 15.8338 4.63223C15.7382 4.54564 15.6134 4.49841 15.4844 4.5H15V2.5C15 2.23478 14.8946 1.98043 14.7071 1.79289C14.5196 1.60536 14.2652 1.5 14 1.5H13.75C13.6837 1.5 13.6201 1.52634 13.5732 1.57322C13.5263 1.62011 13.5 1.6837 13.5 1.75V8.25C13.5 8.3163 13.5263 8.37989 13.5732 8.42678C13.6201 8.47366 13.6837 8.5 13.75 8.5H14C14.2652 8.5 14.5196 8.39464 14.7071 8.20711C14.8946 8.01957 15 7.76522 15 7.5V5.5H15.5C15.5685 5.50015 15.6364 5.48621 15.6993 5.45903C15.7622 5.43186 15.8189 5.39204 15.8658 5.34204C15.9127 5.29205 15.9488 5.23294 15.9719 5.1684C15.995 5.10387 16.0045 5.03527 16 4.96688Z" />
</svg>
