<svg width="14" height="12" viewBox="0 0 14 12" fill="none" xmlns="http://www.w3.org/2000/svg">
<path d="M13.5 0H9.5C8.96957 0 8.46086 0.210714 8.08579 0.585786C7.71071 0.960859 7.5 1.46957 7.5 2V7.48312C7.50174 7.61216 7.45455 7.73707 7.36794 7.83273C7.28132 7.92839 7.1617 7.9877 7.03312 7.99875C6.96473 8.00329 6.89614 7.99372 6.8316 7.97064C6.76706 7.94755 6.70795 7.91144 6.65796 7.86455C6.60796 7.81766 6.56814 7.76099 6.54097 7.69806C6.51379 7.63514 6.49985 7.56729 6.5 7.49875V2C6.5 1.46957 6.28929 0.960859 5.91421 0.585786C5.53914 0.210714 5.03043 0 4.5 0H0.5C0.367392 0 0.240215 0.0526785 0.146447 0.146447C0.0526784 0.240215 0 0.367392 0 0.5V9.5C0 9.63261 0.0526784 9.75979 0.146447 9.85355C0.240215 9.94732 0.367392 10 0.5 10H5C5.39718 10 5.77814 10.1575 6.05934 10.438C6.34053 10.7185 6.49901 11.0991 6.5 11.4963C6.498 11.5983 6.5277 11.6985 6.58501 11.783C6.64232 11.8676 6.72442 11.9322 6.82 11.9681C6.89588 11.9974 6.97776 12.0077 7.05853 11.9982C7.1393 11.9887 7.21653 11.9596 7.28352 11.9135C7.35052 11.8674 7.40525 11.8056 7.44297 11.7336C7.48069 11.6615 7.50027 11.5813 7.5 11.5C7.5 11.1022 7.65804 10.7206 7.93934 10.4393C8.22064 10.158 8.60218 10 9 10H13.5C13.6326 10 13.7598 9.94732 13.8536 9.85355C13.9473 9.75979 14 9.63261 14 9.5V0.5C14 0.367392 13.9473 0.240215 13.8536 0.146447C13.7598 0.0526785 13.6326 0 13.5 0ZM12 7.5H9.51688C9.38784 7.50174 9.26293 7.45455 9.16727 7.36794C9.07161 7.28132 9.01229 7.1617 9.00125 7.03312C8.99671 6.96473 9.00628 6.89613 9.02936 6.8316C9.05245 6.76706 9.08856 6.70795 9.13545 6.65796C9.18234 6.60796 9.23901 6.56814 9.30194 6.54097C9.36486 6.51379 9.43271 6.49985 9.50125 6.5H11.9844C12.1134 6.49826 12.2383 6.54545 12.334 6.63206C12.4296 6.71868 12.489 6.8383 12.5 6.96688C12.5045 7.03527 12.495 7.10387 12.4719 7.1684C12.4488 7.23294 12.4127 7.29205 12.3658 7.34204C12.3189 7.39204 12.2622 7.43186 12.1993 7.45903C12.1364 7.48621 12.0685 7.50015 12 7.5ZM12 5.5H9.51688C9.38784 5.50174 9.26293 5.45455 9.16727 5.36794C9.07161 5.28132 9.01229 5.1617 9.00125 5.03312C8.99671 4.96473 9.00628 4.89614 9.02936 4.8316C9.05245 4.76706 9.08856 4.70795 9.13545 4.65796C9.18234 4.60796 9.23901 4.56814 9.30194 4.54097C9.36486 4.51379 9.43271 4.49985 9.50125 4.5H11.9844C12.1134 4.49826 12.2383 4.54545 12.334 4.63206C12.4296 4.71868 12.489 4.8383 12.5 4.96688C12.5045 5.03527 12.495 5.10387 12.4719 5.1684C12.4488 5.23294 12.4127 5.29205 12.3658 5.34204C12.3189 5.39204 12.2622 5.43186 12.1993 5.45903C12.1364 5.48621 12.0685 5.50015 12 5.5ZM12 3.5H9.51688C9.38763 3.50206 9.26241 3.45502 9.16648 3.36837C9.07055 3.28172 9.01106 3.16192 9 3.03312C8.99546 2.96473 9.00503 2.89614 9.02811 2.8316C9.0512 2.76706 9.08731 2.70795 9.1342 2.65796C9.18109 2.60796 9.23776 2.56814 9.30069 2.54097C9.36361 2.51379 9.43146 2.49985 9.5 2.5H11.9831C12.1124 2.49794 12.2376 2.54498 12.3335 2.63163C12.4294 2.71828 12.4889 2.83808 12.5 2.96688C12.5045 3.03527 12.495 3.10386 12.4719 3.1684C12.4488 3.23294 12.4127 3.29205 12.3658 3.34204C12.3189 3.39204 12.2622 3.43186 12.1993 3.45903C12.1364 3.48621 12.0685 3.50015 12 3.5Z" fill="#201F24"/>
</svg>
