<svg width="12" height="7" viewBox="0 0 12 7" fill="none" xmlns="http://www.w3.org/2000/svg">
<path d="M11.3538 1.35375L6.35378 6.35375C6.30734 6.40024 6.2522 6.43712 6.1915 6.46228C6.1308 6.48744 6.06574 6.50039 6.00003 6.50039C5.93432 6.50039 5.86926 6.48744 5.80856 6.46228C5.74786 6.43712 5.69271 6.40024 5.64628 6.35375L0.646278 1.35375C0.576272 1.28382 0.528588 1.1947 0.509263 1.09765C0.489938 1.00061 0.49984 0.900016 0.537716 0.808605C0.575593 0.717193 0.63974 0.639075 0.722036 0.58414C0.804333 0.529205 0.90108 0.499922 1.00003 0.5H11C11.099 0.499922 11.1957 0.529205 11.278 0.58414C11.3603 0.639075 11.4245 0.717193 11.4623 0.808605C11.5002 0.900016 11.5101 1.00061 11.4908 1.09765C11.4715 1.1947 11.4238 1.28382 11.3538 1.35375Z" fill="#201F24"/>
</svg>
