<svg width="12" height="7" viewBox="0 0 12 7" fill="none" xmlns="http://www.w3.org/2000/svg">
<path d="M0.646283 5.64662L5.64628 0.646616C5.69272 0.600128 5.74786 0.563249 5.80856 0.538086C5.86926 0.512924 5.93433 0.499974 6.00003 0.499974C6.06574 0.499974 6.1308 0.512924 6.1915 0.538086C6.2522 0.563249 6.30735 0.600128 6.35378 0.646616L11.3538 5.64662C11.4238 5.71654 11.4715 5.80567 11.4908 5.90271C11.5101 5.99976 11.5002 6.10035 11.4623 6.19176C11.4245 6.28317 11.3603 6.36129 11.278 6.41623C11.1957 6.47116 11.099 6.50044 11 6.50037L1.00003 6.50037C0.901086 6.50044 0.804339 6.47116 0.722042 6.41623C0.639745 6.36129 0.575599 6.28317 0.537723 6.19176C0.499846 6.10035 0.489943 5.99976 0.509269 5.90271C0.528594 5.80567 0.576278 5.71654 0.646283 5.64662Z" fill="#201F24"/>
</svg>
