<svg width="6" height="11" viewBox="0 0 6 11" fill="none" xmlns="http://www.w3.org/2000/svg">
<path d="M0.853445 0.146465L5.85344 5.14647C5.89993 5.1929 5.93681 5.24805 5.96197 5.30875C5.98714 5.36944 6.00009 5.43451 6.00009 5.50022C6.00009 5.56592 5.98714 5.63099 5.96197 5.69169C5.93681 5.75238 5.89993 5.80753 5.85344 5.85397L0.853445 10.854C0.783517 10.924 0.694391 10.9717 0.597348 10.991C0.500306 11.0103 0.399711 11.0004 0.3083 10.9625C0.216888 10.9247 0.13877 10.8605 0.0838348 10.7782C0.0288994 10.6959 -0.000382907 10.5992 -0.000305043 10.5002L-0.00030548 0.500216C-0.000383353 0.401267 0.028899 0.304521 0.0838343 0.222224C0.13877 0.139927 0.216888 0.0757809 0.308299 0.0379047C0.399711 2.85927e-05 0.500306 -0.00987437 0.597348 0.00945089C0.69439 0.0287761 0.783517 0.0764589 0.853445 0.146465Z" fill="#201F24"/>
</svg>
