<svg width="14" height="13" viewBox="0 0 14 13" fill="none" xmlns="http://www.w3.org/2000/svg">
<path d="M13.2381 2.1725L13.2331 2.17812L9.00001 6.69812V10.1663C9.00026 10.3312 8.9597 10.4936 8.88195 10.6391C8.8042 10.7846 8.69167 10.9086 8.55439 11L6.55439 12.3337C6.40367 12.4341 6.22852 12.4917 6.04763 12.5003C5.86675 12.509 5.68691 12.4683 5.52733 12.3827C5.36774 12.2971 5.2344 12.1698 5.14153 12.0143C5.04866 11.8589 4.99975 11.6811 5.00001 11.5V6.69812L0.766889 2.17812L0.761889 2.1725C0.631731 2.02926 0.545936 1.85133 0.514914 1.66029C0.483891 1.46924 0.508974 1.27331 0.587118 1.09624C0.665263 0.919174 0.793112 0.768589 0.955155 0.662754C1.1172 0.556919 1.30647 0.500381 1.50001 0.5H12.5C12.6937 0.500019 12.8832 0.556294 13.0456 0.661988C13.2079 0.767682 13.336 0.918246 13.4144 1.09538C13.4928 1.27252 13.518 1.46861 13.4871 1.65982C13.4561 1.85104 13.3703 2.02914 13.24 2.1725H13.2381Z" fill="#201F24"/>
</svg>
