<svg width="13" height="10" viewBox="0 0 13 10" fill="none" xmlns="http://www.w3.org/2000/svg">
<path d="M2.5 5C2.5 5.19778 2.44135 5.39112 2.33147 5.55557C2.22159 5.72002 2.06541 5.84819 1.88268 5.92388C1.69996 5.99957 1.49889 6.01937 1.30491 5.98079C1.11093 5.9422 0.932746 5.84696 0.792894 5.70711C0.653041 5.56725 0.5578 5.38907 0.519215 5.19509C0.48063 5.00111 0.500433 4.80004 0.576121 4.61732C0.651809 4.43459 0.779981 4.27841 0.94443 4.16853C1.10888 4.05865 1.30222 4 1.5 4C1.76522 4 2.01957 4.10536 2.20711 4.29289C2.39464 4.48043 2.5 4.73478 2.5 5ZM1.5 0C1.30222 0 1.10888 0.0586491 0.94443 0.16853C0.779981 0.278412 0.651809 0.43459 0.576121 0.617316C0.500433 0.800043 0.48063 1.00111 0.519215 1.19509C0.5578 1.38907 0.653041 1.56725 0.792894 1.70711C0.932746 1.84696 1.11093 1.9422 1.30491 1.98079C1.49889 2.01937 1.69996 1.99957 1.88268 1.92388C2.06541 1.84819 2.22159 1.72002 2.33147 1.55557C2.44135 1.39112 2.5 1.19778 2.5 1C2.5 0.734784 2.39464 0.48043 2.20711 0.292893C2.01957 0.105357 1.76522 0 1.5 0ZM1.5 8C1.30222 8 1.10888 8.05865 0.94443 8.16853C0.779981 8.27841 0.651809 8.43459 0.576121 8.61732C0.500433 8.80004 0.48063 9.00111 0.519215 9.19509C0.5578 9.38907 0.653041 9.56725 0.792894 9.70711C0.932746 9.84696 1.11093 9.9422 1.30491 9.98079C1.49889 10.0194 1.69996 9.99957 1.88268 9.92388C2.06541 9.84819 2.22159 9.72002 2.33147 9.55557C2.44135 9.39112 2.5 9.19778 2.5 9C2.5 8.73478 2.39464 8.48043 2.20711 8.29289C2.01957 8.10536 1.76522 8 1.5 8ZM12.5 4H4.5C4.36739 4 4.24022 4.05268 4.14645 4.14645C4.05268 4.24021 4 4.36739 4 4.5V5.5C4 5.63261 4.05268 5.75979 4.14645 5.85355C4.24022 5.94732 4.36739 6 4.5 6H12.5C12.6326 6 12.7598 5.94732 12.8536 5.85355C12.9473 5.75979 13 5.63261 13 5.5V4.5C13 4.36739 12.9473 4.24021 12.8536 4.14645C12.7598 4.05268 12.6326 4 12.5 4ZM12.5 0H4.5C4.36739 0 4.24022 0.0526785 4.14645 0.146447C4.05268 0.240215 4 0.367392 4 0.5V1.5C4 1.63261 4.05268 1.75979 4.14645 1.85355C4.24022 1.94732 4.36739 2 4.5 2H12.5C12.6326 2 12.7598 1.94732 12.8536 1.85355C12.9473 1.75979 13 1.63261 13 1.5V0.5C13 0.367392 12.9473 0.240215 12.8536 0.146447C12.7598 0.0526785 12.6326 0 12.5 0ZM12.5 8H4.5C4.36739 8 4.24022 8.05268 4.14645 8.14645C4.05268 8.24021 4 8.36739 4 8.5V9.5C4 9.63261 4.05268 9.75979 4.14645 9.85355C4.24022 9.94732 4.36739 10 4.5 10H12.5C12.6326 10 12.7598 9.94732 12.8536 9.85355C12.9473 9.75979 13 9.63261 13 9.5V8.5C13 8.36739 12.9473 8.24021 12.8536 8.14645C12.7598 8.05268 12.6326 8 12.5 8Z" fill="#201F24"/>
</svg>
