<svg width="14" height="14" viewBox="0 0 14 14" fill="none" xmlns="http://www.w3.org/2000/svg">
<path d="M13.3537 12.6463L10.2244 9.51752C11.1314 8.42859 11.5837 7.03189 11.4871 5.61798C11.3906 4.20407 10.7527 2.88181 9.70608 1.92625C8.65948 0.9707 7.28477 0.455429 5.86793 0.487629C4.4511 0.519829 3.10122 1.09702 2.0991 2.09913C1.09699 3.10125 0.519799 4.45113 0.487599 5.86796C0.455399 7.2848 0.97067 8.65951 1.92622 9.70611C2.88177 10.7527 4.20404 11.3906 5.61795 11.4872C7.03186 11.5837 8.42856 11.1314 9.51749 10.2244L12.6462 13.3538C12.6927 13.4002 12.7478 13.4371 12.8085 13.4622C12.8692 13.4874 12.9343 13.5003 13 13.5003C13.0657 13.5003 13.1307 13.4874 13.1914 13.4622C13.2521 13.4371 13.3073 13.4002 13.3537 13.3538C13.4002 13.3073 13.437 13.2522 13.4622 13.1915C13.4873 13.1308 13.5003 13.0657 13.5003 13C13.5003 12.9343 13.4873 12.8693 13.4622 12.8086C13.437 12.7479 13.4002 12.6927 13.3537 12.6463ZM1.49999 6.00002C1.49999 5.11 1.76391 4.23998 2.25838 3.49995C2.75284 2.75993 3.45565 2.18316 4.27791 1.84256C5.10018 1.50197 6.00498 1.41285 6.8779 1.58649C7.75081 1.76012 8.55263 2.1887 9.18197 2.81804C9.81131 3.44738 10.2399 4.2492 10.4135 5.12211C10.5872 5.99503 10.498 6.89983 10.1574 7.7221C9.81685 8.54436 9.24008 9.24717 8.50006 9.74163C7.76004 10.2361 6.89001 10.5 5.99999 10.5C4.80692 10.4987 3.6631 10.0242 2.81947 9.18054C1.97584 8.33691 1.50131 7.19309 1.49999 6.00002Z" fill="#201F24"/>
</svg>
