<svg  viewBox="0 0 12 13" xmlns="http://www.w3.org/2000/svg">
<path d="M11.1438 1.52123L6.14375 0.0212318C6.0691 -0.00117623 5.99025 -0.0058222 5.91348 0.00766485C5.83672 0.0211519 5.76417 0.0523984 5.70162 0.09891C5.63908 0.145422 5.58828 0.20591 5.55327 0.275547C5.51827 0.345184 5.50002 0.422041 5.5 0.499982V7.26623C4.98794 6.80823 4.3342 6.53986 3.64804 6.50596C2.96188 6.47205 2.28487 6.67468 1.73016 7.07998C1.17545 7.48527 0.776643 8.06867 0.600401 8.73268C0.424158 9.39669 0.481154 10.1011 0.761863 10.7281C1.04257 11.3551 1.52998 11.8668 2.14264 12.1777C2.7553 12.4885 3.45608 12.5796 4.12787 12.4359C4.79965 12.2921 5.40174 11.9221 5.8335 11.3877C6.26526 10.8533 6.50053 10.187 6.5 9.49998V4.17186L10.8563 5.47873C10.9309 5.50114 11.0098 5.50579 11.0865 5.4923C11.1633 5.47881 11.2358 5.44757 11.2984 5.40105C11.3609 5.35454 11.4117 5.29405 11.4467 5.22442C11.4817 5.15478 11.5 5.07792 11.5 4.99998V1.99998C11.5 1.89249 11.4653 1.78787 11.4011 1.70163C11.337 1.6154 11.2467 1.55214 11.1438 1.52123Z" />
</svg>
