<svg  viewBox="0 0 14 13"  xmlns="http://www.w3.org/2000/svg">
<path d="M14 6.5C14 6.63261 13.9473 6.75979 13.8536 6.85355C13.7598 6.94732 13.6326 7 13.5 7H11.5V9H12C12.2652 9 12.5196 9.10536 12.7071 9.29289C12.8946 9.48043 13 9.73478 13 10V12C13 12.2652 12.8946 12.5196 12.7071 12.7071C12.5196 12.8946 12.2652 13 12 13H10C9.73478 13 9.48043 12.8946 9.29289 12.7071C9.10536 12.5196 9 12.2652 9 12V10C9 9.73478 9.10536 9.48043 9.29289 9.29289C9.48043 9.10536 9.73478 9 10 9H10.5V7H3.5V9H4C4.26522 9 4.51957 9.10536 4.70711 9.29289C4.89464 9.48043 5 9.73478 5 10V12C5 12.2652 4.89464 12.5196 4.70711 12.7071C4.51957 12.8946 4.26522 13 4 13H2C1.73478 13 1.48043 12.8946 1.29289 12.7071C1.10536 12.5196 1 12.2652 1 12V10C1 9.73478 1.10536 9.48043 1.29289 9.29289C1.48043 9.10536 1.73478 9 2 9H2.5V7H0.5C0.367392 7 0.240215 6.94732 0.146447 6.85355C0.0526784 6.75979 0 6.63261 0 6.5C0 6.36739 0.0526784 6.24021 0.146447 6.14645C0.240215 6.05268 0.367392 6 0.5 6H6.5V4.5H6C5.73478 4.5 5.48043 4.39464 5.29289 4.20711C5.10536 4.01957 5 3.76522 5 3.5V1.5C5 1.23478 5.10536 0.98043 5.29289 0.792893C5.48043 0.605357 5.73478 0.5 6 0.5H8C8.26522 0.5 8.51957 0.605357 8.70711 0.792893C8.89464 0.98043 9 1.23478 9 1.5V3.5C9 3.76522 8.89464 4.01957 8.70711 4.20711C8.51957 4.39464 8.26522 4.5 8 4.5H7.5V6H13.5C13.6326 6 13.7598 6.05268 13.8536 6.14645C13.9473 6.24021 14 6.36739 14 6.5Z" />
</svg>
