<svg viewBox="0 0 13 14"  xmlns="http://www.w3.org/2000/svg">
<path d="M10.5 7.99999H5.70625L7.10688 6.59936C7.61326 6.85438 8.1712 6.99034 8.73813 6.99686C9.30877 6.99837 9.86874 6.84221 10.3563 6.54561C11.8388 5.64811 12.6331 3.57061 12.4813 0.988113C12.4741 0.865791 12.4223 0.750351 12.3357 0.663709C12.249 0.577067 12.1336 0.525256 12.0113 0.518113C9.42875 0.366238 7.35125 1.16061 6.45313 2.64311C5.86875 3.60874 5.85375 4.77499 6.39938 5.89311L5.5 6.79249L4.73688 6.02936C5.11188 5.20124 5.085 4.34186 4.65 3.62436C3.97063 2.49999 2.41313 1.90061 0.483129 2.01374C0.361019 2.02101 0.245813 2.0728 0.159316 2.1593C0.0728177 2.2458 0.0210302 2.361 0.0137543 2.48311C-0.0999957 4.41249 0.500004 5.96999 1.625 6.64999C2.00138 6.8798 2.43402 7.00094 2.875 6.99999C3.27507 6.99602 3.66969 6.90674 4.0325 6.73811L4.79313 7.49999L4.29313 7.99999H1.5C1.3674 7.99999 1.24022 8.05267 1.14645 8.14643C1.05268 8.2402 1 8.36738 1 8.49999C1 8.6326 1.05268 8.75977 1.14645 8.85354C1.24022 8.94731 1.3674 8.99999 1.5 8.99999H2.09938L2.925 12.7169C2.97319 12.9396 3.0965 13.139 3.27425 13.2816C3.452 13.4241 3.67338 13.5013 3.90125 13.5H8.09938C8.32719 13.501 8.54846 13.4238 8.72616 13.2813C8.90386 13.1387 9.02723 12.9395 9.07563 12.7169L9.90125 8.99999H10.5C10.6326 8.99999 10.7598 8.94731 10.8536 8.85354C10.9473 8.75977 11 8.6326 11 8.49999C11 8.36738 10.9473 8.2402 10.8536 8.14643C10.7598 8.05267 10.6326 7.99999 10.5 7.99999Z" />
</svg>
