<svg width="12" height="13" viewBox="0 0 12 13" fill="none" xmlns="http://www.w3.org/2000/svg">
<path d="M11 0.5H1C0.734784 0.5 0.48043 0.605357 0.292893 0.792893C0.105357 0.98043 0 1.23478 0 1.5V5C0 8.295 1.595 10.2919 2.93313 11.3869C4.37437 12.5656 5.80813 12.9663 5.87063 12.9825C5.95656 13.0059 6.04719 13.0059 6.13313 12.9825C6.19563 12.9663 7.6275 12.5656 9.07063 11.3869C10.405 10.2919 12 8.295 12 5V1.5C12 1.23478 11.8946 0.98043 11.7071 0.792893C11.5196 0.605357 11.2652 0.5 11 0.5ZM8 6.5H6.5V8C6.5 8.13261 6.44732 8.25979 6.35355 8.35355C6.25979 8.44732 6.13261 8.5 6 8.5C5.86739 8.5 5.74021 8.44732 5.64645 8.35355C5.55268 8.25979 5.5 8.13261 5.5 8V6.5H4C3.86739 6.5 3.74021 6.44732 3.64645 6.35355C3.55268 6.25979 3.5 6.13261 3.5 6C3.5 5.86739 3.55268 5.74021 3.64645 5.64645C3.74021 5.55268 3.86739 5.5 4 5.5H5.5V4C5.5 3.86739 5.55268 3.74021 5.64645 3.64645C5.74021 3.55268 5.86739 3.5 6 3.5C6.13261 3.5 6.25979 3.55268 6.35355 3.64645C6.44732 3.74021 6.5 3.86739 6.5 4V5.5H8C8.13261 5.5 8.25979 5.55268 8.35355 5.64645C8.44732 5.74021 8.5 5.86739 8.5 6C8.5 6.13261 8.44732 6.25979 8.35355 6.35355C8.25979 6.44732 8.13261 6.5 8 6.5Z" fill="#201F24"/>
</svg>
