<svg width="12" height="12" viewBox="0 0 12 12" fill="none" xmlns="http://www.w3.org/2000/svg">
<path d="M11 0H1C0.734784 0 0.48043 0.105357 0.292893 0.292893C0.105357 0.48043 0 0.734784 0 1V11C0 11.2652 0.105357 11.5196 0.292893 11.7071C0.48043 11.8946 0.734784 12 1 12H11C11.2652 12 11.5196 11.8946 11.7071 11.7071C11.8946 11.5196 12 11.2652 12 11V1C12 0.734784 11.8946 0.48043 11.7071 0.292893C11.5196 0.105357 11.2652 0 11 0ZM2.5 2.5H8.5C8.63261 2.5 8.75979 2.55268 8.85355 2.64645C8.94732 2.74021 9 2.86739 9 3C9 3.13261 8.94732 3.25979 8.85355 3.35355C8.75979 3.44732 8.63261 3.5 8.5 3.5H2.5C2.36739 3.5 2.24021 3.44732 2.14645 3.35355C2.05268 3.25979 2 3.13261 2 3C2 2.86739 2.05268 2.74021 2.14645 2.64645C2.24021 2.55268 2.36739 2.5 2.5 2.5ZM5 9.5H2.5C2.36739 9.5 2.24021 9.44732 2.14645 9.35355C2.05268 9.25979 2 9.13261 2 9C2 8.86739 2.05268 8.74021 2.14645 8.64645C2.24021 8.55268 2.36739 8.5 2.5 8.5H5C5.13261 8.5 5.25979 8.55268 5.35355 8.64645C5.44732 8.74021 5.5 8.86739 5.5 9C5.5 9.13261 5.44732 9.25979 5.35355 9.35355C5.25979 9.44732 5.13261 9.5 5 9.5ZM5.5 6.5H2.5C2.36739 6.5 2.24021 6.44732 2.14645 6.35355C2.05268 6.25979 2 6.13261 2 6C2 5.86739 2.05268 5.74021 2.14645 5.64645C2.24021 5.55268 2.36739 5.5 2.5 5.5H5.5C5.63261 5.5 5.75979 5.55268 5.85355 5.64645C5.94732 5.74021 6 5.86739 6 6C6 6.13261 5.94732 6.25979 5.85355 6.35355C5.75979 6.44732 5.63261 6.5 5.5 6.5ZM10.3538 8.35375L8.85375 9.85375C8.80731 9.90024 8.75217 9.93712 8.69147 9.96228C8.63077 9.98744 8.56571 10.0004 8.5 10.0004C8.43429 10.0004 8.36923 9.98744 8.30853 9.96228C8.24783 9.93712 8.19269 9.90024 8.14625 9.85375L6.64625 8.35375C6.55243 8.25993 6.49972 8.13268 6.49972 8C6.49972 7.86732 6.55243 7.74007 6.64625 7.64625C6.74007 7.55243 6.86732 7.49972 7 7.49972C7.13268 7.49972 7.25993 7.55243 7.35375 7.64625L8 8.29313V5.5C8 5.36739 8.05268 5.24021 8.14645 5.14645C8.24021 5.05268 8.36739 5 8.5 5C8.63261 5 8.75979 5.05268 8.85355 5.14645C8.94732 5.24021 9 5.36739 9 5.5V8.29313L9.64625 7.64625C9.74007 7.55243 9.86732 7.49972 10 7.49972C10.1327 7.49972 10.2599 7.55243 10.3538 7.64625C10.4476 7.74007 10.5003 7.86732 10.5003 8C10.5003 8.13268 10.4476 8.25993 10.3538 8.35375Z" fill="#201F24"/>
</svg>
