<svg width="14" height="12" viewBox="0 0 14 12" fill="none" xmlns="http://www.w3.org/2000/svg">
<path d="M13.5 11C13.5 11.1326 13.4473 11.2598 13.3536 11.3536C13.2598 11.4473 13.1326 11.5 13 11.5H1C0.867392 11.5 0.740215 11.4473 0.646447 11.3536C0.552678 11.2598 0.5 11.1326 0.5 11C0.5 10.8674 0.552678 10.7402 0.646447 10.6464C0.740215 10.5527 0.867392 10.5 1 10.5H13C13.1326 10.5 13.2598 10.5527 13.3536 10.6464C13.4473 10.7402 13.5 10.8674 13.5 11ZM13.5 1.5V8.5C13.5 8.76522 13.3946 9.01957 13.2071 9.20711C13.0196 9.39464 12.7652 9.5 12.5 9.5H1.5C1.23478 9.5 0.98043 9.39464 0.792893 9.20711C0.605357 9.01957 0.5 8.76522 0.5 8.5V1.5C0.5 1.23478 0.605357 0.98043 0.792893 0.792893C0.98043 0.605357 1.23478 0.5 1.5 0.5H12.5C12.7652 0.5 13.0196 0.605357 13.2071 0.792893C13.3946 0.98043 13.5 1.23478 13.5 1.5ZM9.25 5C9.24998 4.91966 9.2306 4.84051 9.1935 4.76925C9.1564 4.69799 9.10267 4.63672 9.03687 4.59062L6.53687 2.84062C6.46196 2.78815 6.37409 2.75722 6.28282 2.75122C6.19155 2.74522 6.10038 2.76436 6.01923 2.80658C5.93809 2.84879 5.87008 2.91246 5.82261 2.99064C5.77514 3.06883 5.75003 3.15853 5.75 3.25V6.75C5.75003 6.84147 5.77514 6.93118 5.82261 7.00936C5.87008 7.08754 5.93809 7.15121 6.01923 7.19342C6.10038 7.23564 6.19155 7.25479 6.28282 7.24878C6.37409 7.24278 6.46196 7.21185 6.53687 7.15938L9.03687 5.40938C9.10267 5.36328 9.1564 5.30201 9.1935 5.23075C9.2306 5.15949 9.24998 5.08034 9.25 5Z" fill="#201F24"/>
</svg>
