<svg viewBox="0 0 16 11" xmlns="http://www.w3.org/2000/svg">
<path d="M15 9.5H14.5V1.61875L15.1044 1.48875C15.17 1.47644 15.2324 1.45113 15.2881 1.41431C15.3438 1.37748 15.3915 1.32989 15.4285 1.27433C15.4654 1.21877 15.4909 1.15637 15.5034 1.09081C15.5159 1.02525 15.5151 0.957851 15.5011 0.892593C15.4871 0.827334 15.4602 0.765534 15.422 0.710836C15.3838 0.656138 15.335 0.609649 15.2785 0.574109C15.222 0.538568 15.159 0.514696 15.0931 0.5039C15.0272 0.493104 14.9599 0.495602 14.895 0.511246L0.895 3.51125C0.77439 3.53727 0.667663 3.60698 0.595347 3.70695C0.52303 3.80692 0.490233 3.9301 0.503262 4.0528C0.516292 4.17549 0.574229 4.28904 0.665928 4.37159C0.757628 4.45415 0.876614 4.49988 1 4.5C1.03551 4.50001 1.07092 4.49624 1.10563 4.48875L1.5 4.40437V9.5H1C0.867392 9.5 0.740215 9.55267 0.646447 9.64644C0.552678 9.74021 0.5 9.86739 0.5 10C0.5 10.1326 0.552678 10.2598 0.646447 10.3535C0.740215 10.4473 0.867392 10.5 1 10.5H15C15.1326 10.5 15.2598 10.4473 15.3536 10.3535C15.4473 10.2598 15.5 10.1326 15.5 10C15.5 9.86739 15.4473 9.74021 15.3536 9.64644C15.2598 9.55267 15.1326 9.5 15 9.5ZM11.5 9.5H4.5V8.5H11.5V9.5ZM11.5 7.5H4.5V6.5H11.5V7.5Z" />
</svg>
